<svg xmlns="http://www.w3.org/2000/svg">
	<defs>
		<style>
		.img { display: none }
		.img:target { display: inline }
		</style>
	</defs>

	<svg viewBox="0 0 16 16">
		<g id="chart" class="img">
			<rect x="6" width="4" height="16"/>
			<rect x="12" y="4" width="4" height="12"/>
			<rect x="0" y="8" width="4" height="8"/>
		</g>
	</svg>

	<svg viewBox="0 0 40 40" fill="none" xmlns="http://www.w3.org/2000/svg">
		<g id="logo" class="img">
			<path fill-rule="evenodd" clip-rule="evenodd" d="M20 40C31.0457 40 40 31.0457 40 20C40 8.95431 31.0457 0 20 0C8.95431 0 0 8.95431 0 20C0 31.0457 8.95431 40 20 40Z" fill="#758BFD"/>
			<path opacity="0.497763" fill-rule="evenodd" clip-rule="evenodd" d="M14.7142 25.4734V19.9525L12.9975 14.7997C12.8544 14.3389 12.4296 14.0563 11.9891 14.129C11.7326 14.1803 11.5097 14.3525 11.3799 14.5997C11.2501 14.8469 11.2265 15.144 11.3154 15.4119L13.5533 22.1309C13.5847 22.2254 13.5593 22.3311 13.4896 22.3967C13.4199 22.4623 13.3204 22.4741 13.2395 22.4263L11.0645 21.1405C10.5671 20.8337 9.93781 20.9903 9.61099 21.5021C9.28417 22.0139 9.36694 22.7132 9.80216 23.1174L15.294 28.2353C14.9185 27.3719 14.7206 26.4292 14.7142 25.4734Z" fill="white"/>
			<path opacity="0.497763" fill-rule="evenodd" clip-rule="evenodd" d="M17.6391 14.9292C18.3407 15.0757 18.8995 15.6179 19.0795 16.3266L19.0946 16.3836L19.2481 17.6471L20.0001 16.2768L18.204 11.2256C18.0613 10.7946 17.6366 10.5304 17.1967 10.599C16.9402 10.6469 16.7174 10.808 16.5878 11.0393C16.4582 11.2707 16.4349 11.5487 16.5243 11.7992L17.6391 14.9292Z" fill="white"/>
			<path opacity="0.497763" fill-rule="evenodd" clip-rule="evenodd" d="M20.3786 15.2941L21.1765 13.4214C21.1047 13.2127 20.9699 13.0533 20.8049 12.9819C20.6398 12.9105 20.4596 12.9337 20.3082 13.0458C20.0421 13.2602 19.9308 13.6953 20.044 14.0785L20.3786 15.2941Z" fill="white"/>
			<path opacity="0.497763" fill-rule="evenodd" clip-rule="evenodd" d="M14.8746 16.4706C14.9906 15.6671 15.6107 14.9938 16.4703 14.738L15.0605 11.2694C14.886 10.8086 14.3668 10.5263 13.8291 10.5998C13.5154 10.6507 13.2429 10.8228 13.0843 11.07C12.9257 11.3173 12.8971 11.6146 13.0063 11.8824L14.8746 16.4706Z" fill="white"/>
			<path fill-rule="evenodd" clip-rule="evenodd" d="M30.0587 19.0951C29.6236 18.9264 29.137 19.1124 28.9038 19.5366L26.9468 23.1694C26.8251 23.3952 26.5538 23.4737 26.3407 23.3448C26.1277 23.2158 26.0536 22.9282 26.1753 22.7024L29.6758 16.2061C29.9058 15.8006 29.8283 15.2786 29.4919 14.9675C29.2897 14.7916 29.0245 14.719 28.7672 14.7693C28.5098 14.8195 28.2865 14.9875 28.1567 15.2283L24.6318 21.7699C24.5531 21.9159 24.4068 22.0064 24.2481 22.0072C24.0894 22.008 23.9423 21.919 23.8623 21.7737C23.7823 21.6284 23.7815 21.449 23.8602 21.3029L27.5815 14.397C27.8132 13.9907 27.7356 13.4667 27.3976 13.1552C27.1953 12.979 26.93 12.9065 26.6725 12.9568C26.4151 13.0072 26.1917 13.1754 26.062 13.4164L22.3176 20.3661C22.1959 20.5919 21.9246 20.6704 21.7115 20.5415C21.4985 20.4125 21.4244 20.1249 21.5461 19.8991L24.3861 14.6267C24.6148 14.2217 24.5374 13.7013 24.2022 13.3905C23.9999 13.2144 23.7346 13.1418 23.4771 13.1922C23.2197 13.2426 22.9963 13.4107 22.8666 13.6518L19.2462 20.4777C19.1991 20.5663 19.1037 20.6129 19.0096 20.5932C18.9155 20.5735 18.8439 20.492 18.8322 20.3911L18.4324 17.0087C18.3112 16.5089 17.8671 16.175 17.382 16.2188C16.8525 16.2891 16.4591 16.7724 16.471 17.3378V25.0957C16.478 27.0288 17.4581 28.8108 19.0418 29.7698C21.6213 31.4041 24.9625 30.5143 26.5066 27.7818L30.4713 20.4235C30.5961 20.192 30.6225 19.9153 30.5438 19.662C30.4651 19.4088 30.2888 19.2027 30.0587 19.0951Z" fill="white"/>
		</g>
	</svg>

	<svg viewBox="0 0 40 40" fill="none" xmlns="http://www.w3.org/2000/svg">
		<g id="logo-bw" class="img">
			<path fill-rule="evenodd" clip-rule="evenodd" d="M20 40C31.0457 40 40 31.0457 40 20C40 8.95431 31.0457 0 20 0C8.95431 0 0 8.95431 0 20C0 31.0457 8.95431 40 20 40Z" fill="#505260"/>
			<path opacity="0.497763" fill-rule="evenodd" clip-rule="evenodd" d="M14.7142 25.4734V19.9526L12.9975 14.7998C12.8544 14.3389 12.4296 14.0563 11.9891 14.129C11.7326 14.1804 11.5097 14.3525 11.3799 14.5997C11.2501 14.8469 11.2265 15.144 11.3154 15.4119L13.5533 22.1309C13.5847 22.2254 13.5593 22.3312 13.4896 22.3968C13.4199 22.4624 13.3204 22.4741 13.2395 22.4263L11.0645 21.1405C10.5671 20.8338 9.93781 20.9903 9.61099 21.5021C9.28417 22.0139 9.36694 22.7132 9.80216 23.1174L15.294 28.2353C14.9185 27.372 14.7206 26.4293 14.7142 25.4734Z" fill="white"/>
			<path opacity="0.497763" fill-rule="evenodd" clip-rule="evenodd" d="M17.6391 14.9293C18.3407 15.0759 18.8995 15.618 19.0795 16.3267L19.0946 16.3837L19.2481 17.6472L20.0001 16.277L18.204 11.2257C18.0613 10.7947 17.6366 10.5306 17.1967 10.5992C16.9402 10.647 16.7174 10.8081 16.5878 11.0395C16.4582 11.2708 16.4349 11.5488 16.5243 11.7993L17.6391 14.9293Z" fill="white"/>
			<path opacity="0.497763" fill-rule="evenodd" clip-rule="evenodd" d="M20.3786 15.2943L21.1765 13.4217C21.1047 13.213 20.9699 13.0535 20.8049 12.9821C20.6398 12.9107 20.4596 12.9339 20.3082 13.0461C20.0421 13.2604 19.9308 13.6955 20.044 14.0788L20.3786 15.2943Z" fill="white"/>
			<path opacity="0.497763" fill-rule="evenodd" clip-rule="evenodd" d="M14.8746 16.4707C14.9906 15.6672 15.6107 14.994 16.4703 14.7381L15.0605 11.2695C14.886 10.8087 14.3668 10.5264 13.8291 10.6C13.5154 10.6509 13.2429 10.8229 13.0843 11.0702C12.9257 11.3174 12.8971 11.6147 13.0063 11.8825L14.8746 16.4707Z" fill="white"/>
			<path fill-rule="evenodd" clip-rule="evenodd" d="M30.0587 19.0953C29.6236 18.9266 29.137 19.1127 28.9038 19.5369L26.9468 23.1696C26.8251 23.3954 26.5538 23.474 26.3407 23.345C26.1277 23.216 26.0536 22.9285 26.1753 22.7027L29.6758 16.2063C29.9058 15.8008 29.8283 15.2789 29.4919 14.9678C29.2897 14.7918 29.0245 14.7192 28.7672 14.7695C28.5098 14.8198 28.2865 14.9877 28.1567 15.2286L24.6318 21.7701C24.5531 21.9162 24.4068 22.0066 24.2481 22.0074C24.0894 22.0082 23.9423 21.9192 23.8623 21.7739C23.7823 21.6287 23.7815 21.4492 23.8602 21.3031L27.5815 14.3972C27.8132 13.991 27.7356 13.4669 27.3976 13.1554C27.1953 12.9793 26.93 12.9067 26.6725 12.9571C26.4151 13.0074 26.1917 13.1756 26.062 13.4167L22.3176 20.3663C22.1959 20.5921 21.9246 20.6706 21.7115 20.5417C21.4985 20.4127 21.4244 20.1251 21.5461 19.8993L24.3861 14.627C24.6148 14.222 24.5374 13.7015 24.2022 13.3908C23.9999 13.2146 23.7346 13.1421 23.4771 13.1924C23.2197 13.2428 22.9963 13.411 22.8666 13.652L19.2462 20.4779C19.1991 20.5665 19.1037 20.6131 19.0096 20.5934C18.9155 20.5737 18.8439 20.4922 18.8322 20.3913L18.4324 17.0089C18.3112 16.5091 17.8671 16.1752 17.382 16.219C16.8525 16.2894 16.4591 16.7727 16.471 17.338V25.0959C16.478 27.029 17.4581 28.8111 19.0418 29.77C21.6213 31.4044 24.9625 30.5146 26.5066 27.782L30.4713 20.4238C30.5961 20.1923 30.6225 19.9155 30.5438 19.6623C30.4651 19.409 30.2888 19.203 30.0587 19.0953Z" fill="white"/>
		</g>
	</svg>

	<svg viewBox="0 0 40 36" fill="none" xmlns="http://www.w3.org/2000/svg">
		<g id="logo-yellow" class="img">
			<path fill-rule="evenodd" clip-rule="evenodd" d="M20 35.9639C31.0457 35.9639 40 28.0884 40 18.3735C40 8.6586 31.0457 0.783131 20 0.783131C8.95431 0.783131 0 8.6586 0 18.3735C0 28.0884 8.95431 35.9639 20 35.9639Z" fill="#FFDB5C"/>
			<path opacity="0.497763" fill-rule="evenodd" clip-rule="evenodd" d="M14.7147 23.1875V18.3318L12.998 13.7998C12.8549 13.3944 12.4301 13.1459 11.9896 13.2098C11.7331 13.255 11.5102 13.4064 11.3804 13.6238C11.2506 13.8412 11.227 14.1025 11.3159 14.3382L13.5538 20.2476C13.5851 20.3307 13.5598 20.4238 13.4901 20.4815C13.4204 20.5392 13.3209 20.5495 13.24 20.5075L11.065 19.3766C10.5676 19.1068 9.9383 19.2444 9.61148 19.6946C9.28466 20.1447 9.36743 20.7598 9.80264 21.1153L15.2945 25.6166C14.919 24.8573 14.7211 24.0281 14.7147 23.1875Z" fill="white"/>
			<path opacity="0.497763" fill-rule="evenodd" clip-rule="evenodd" d="M17.6391 13.9136C18.3407 14.0425 18.8995 14.5193 19.0795 15.1427L19.0945 15.1928L19.2481 16.304L20.0001 15.0989L18.204 10.6562C18.0613 10.2771 17.6366 10.0448 17.1967 10.1052C16.9402 10.1473 16.7174 10.2889 16.5878 10.4924C16.4582 10.6959 16.4349 10.9404 16.5243 11.1607L17.6391 13.9136Z" fill="white"/>
			<path opacity="0.497763" fill-rule="evenodd" clip-rule="evenodd" d="M20.3786 14.2346L21.1765 12.5875C21.1047 12.404 20.9699 12.2637 20.8049 12.201C20.6398 12.1382 20.4597 12.1586 20.3082 12.2572C20.0421 12.4457 19.9308 12.8284 20.044 13.1655L20.3786 14.2346Z" fill="white"/>
			<path opacity="0.497763" fill-rule="evenodd" clip-rule="evenodd" d="M14.875 15.2693C14.9911 14.5626 15.6112 13.9705 16.4708 13.7455L15.061 10.6948C14.8865 10.2895 14.3673 10.0412 13.8296 10.1059C13.5159 10.1506 13.2434 10.302 13.0848 10.5194C12.9262 10.7369 12.8976 10.9984 13.0068 11.2339L14.875 15.2693Z" fill="white"/>
			<path fill-rule="evenodd" clip-rule="evenodd" d="M30.0587 17.5776C29.6236 17.4292 29.137 17.5929 28.9038 17.966L26.9468 21.161C26.8251 21.3596 26.5538 21.4287 26.3407 21.3153C26.1277 21.2019 26.0536 20.9489 26.1753 20.7503L29.6758 15.0367C29.9058 14.68 29.8283 14.221 29.4919 13.9474C29.2897 13.7926 29.0245 13.7288 28.7672 13.773C28.5098 13.8172 28.2865 13.9649 28.1567 14.1767L24.6318 19.9301C24.5531 20.0586 24.4068 20.1382 24.2481 20.1389C24.0894 20.1396 23.9423 20.0613 23.8623 19.9335C23.7823 19.8057 23.7815 19.6479 23.8602 19.5194L27.5815 13.4456C27.8132 13.0882 27.7356 12.6273 27.3976 12.3533C27.1953 12.1984 26.93 12.1346 26.6725 12.1789C26.4151 12.2232 26.1917 12.3711 26.062 12.5831L22.3176 18.6955C22.1959 18.8941 21.9246 18.9631 21.7115 18.8497C21.4985 18.7363 21.4244 18.4834 21.5461 18.2848L24.3861 13.6476C24.6148 13.2914 24.5374 12.8337 24.2022 12.5603C23.9999 12.4054 23.7346 12.3416 23.4771 12.3859C23.2197 12.4302 22.9963 12.5781 22.8666 12.7901L19.2462 18.7936C19.1991 18.8715 19.1037 18.9125 19.0096 18.8952C18.9155 18.8779 18.8439 18.8062 18.8322 18.7174L18.4324 15.7426C18.3112 15.303 17.8671 15.0093 17.382 15.0479C16.8525 15.1097 16.4591 15.5348 16.471 16.032V22.8553C16.478 24.5554 17.4581 26.1228 19.0418 26.9662C21.6213 28.4036 24.9625 27.621 26.5066 25.2177L30.4713 18.746C30.5961 18.5424 30.6225 18.299 30.5438 18.0762C30.4651 17.8535 30.2888 17.6723 30.0587 17.5776Z" fill="white"/>
		</g>
	</svg>

	<svg viewBox="0 0 60 60" fill="none" xmlns="http://www.w3.org/2000/svg">
		<g id="check" class="img">
			<path d="M30 0C13.458 0 0 13.458 0 30C0 46.542 13.458 60 30 60C46.542 60 60 46.542 60 30C60 13.458 46.542 0 30 0ZM24.003 43.239L14.9864 34.2418C13.8141 33.072 13.8117 31.1736 14.9811 30.0009C16.1511 28.8276 18.051 28.8254 19.2238 29.9961L23.997 34.761L37.758 21C38.9294 19.8286 40.8286 19.8286 42 21C43.1714 22.1714 43.1714 24.0706 42 25.242L24.003 43.239Z" fill="#758BFD"/>
		</g>
	</svg>

	<svg viewBox="0 0 20 26" fill="none" xmlns="http://www.w3.org/2000/svg">
		<g id="passport" class="img">
			<path d="M3.39844 0H18.6328C19.1937 0 19.6484 0.454695 19.6484 1.01562V24.9844C19.6484 25.5453 19.1937 26 18.6328 26H3.39844C1.71839 26 0.351562 24.6332 0.351562 22.9531V3.04688C0.351562 1.36683 1.71839 0 3.39844 0ZM2.38281 22.9531C2.38281 23.5131 2.83842 23.9688 3.39844 23.9688H17.6172L1.61719 24.0312L1.39844 2.03125C0.838423 2.03125 2.38281 2.48686 2.38281 3.04688V22.9531Z" fill="white"/>
			<path d="M3.39844 0H18.6328C19.1937 0 19.6484 0.454695 19.6484 1.01562V24.9844C19.6484 25.5453 19.1937 26 18.6328 26H3.39844C1.71839 26 0.351562 24.6332 0.351562 22.9531V3.04688C0.351562 1.36683 1.71839 0 3.39844 0ZM2.38281 22.9531C2.38281 23.5131 2.83842 23.9688 3.39844 23.9688H17.6172V2.03125H3.39844C2.83842 2.03125 2.38281 2.48686 2.38281 3.04688V22.9531Z" fill="#272830"/>
			<path d="M6.95312 16.8086H13.0469C13.6078 16.8086 14.0625 17.2633 14.0625 17.8242C14.0625 18.3851 13.6078 18.8398 13.0469 18.8398H6.95312C6.3922 18.8398 5.9375 18.3851 5.9375 17.8242C5.9375 17.2633 6.3922 16.8086 6.95312 16.8086Z" fill="#272830"/>
			<path d="M10 7.16016C12.2401 7.16016 14.0625 8.98259 14.0625 11.2227C14.0625 13.4627 12.2401 15.2852 10 15.2852C7.75994 15.2852 5.9375 13.4627 5.9375 11.2227C5.9375 8.98259 7.75994 7.16016 10 7.16016ZM10 13.2539C11.12 13.2539 12.0312 12.3427 12.0312 11.2227C12.0312 10.1026 11.12 9.19141 10 9.19141C8.87997 9.19141 7.96875 10.1026 7.96875 11.2227C7.96875 12.3427 8.87997 13.2539 10 13.2539Z" fill="#272830"/>
		</g>
	</svg>

	<svg viewBox="0 0 26 26" fill="none" xmlns="http://www.w3.org/2000/svg">
		<g id="credit-card" class="img">
			<rect x="1" y="5" width="24" height="16" rx="4" fill="white"/>
			<path d="M22.9531 3.85938H3.04688C1.36673 3.85938 0 5.2261 0 6.90625V19.0938C0 20.7739 1.36673 22.1406 3.04688 22.1406H22.9531C24.6333 22.1406 26 20.7739 26 19.0938V6.90625C26 5.2261 24.6333 3.85938 22.9531 3.85938ZM3.04688 5.89062H22.9531C23.5131 5.89062 23.9688 6.34627 23.9688 6.90625V7.92188H2.03125V6.90625C2.03125 6.34627 2.48689 5.89062 3.04688 5.89062ZM22.9531 20.1094H3.04688C2.48689 20.1094 2.03125 19.6537 2.03125 19.0938V9.95312H23.9688V19.0938C23.9688 19.6537 23.5131 20.1094 22.9531 20.1094ZM22.4453 17.3164C22.4453 18.0176 21.877 18.5859 21.1758 18.5859C20.4746 18.5859 19.9062 18.0176 19.9062 17.3164C19.9062 16.6152 20.4746 16.0469 21.1758 16.0469C21.877 16.0469 22.4453 16.6152 22.4453 17.3164ZM18.8906 17.3164C18.8906 18.0176 18.3223 18.5859 17.6211 18.5859C16.9199 18.5859 16.3516 18.0176 16.3516 17.3164C16.3516 16.6152 16.9199 16.0469 17.6211 16.0469C18.3223 16.0469 18.8906 16.6152 18.8906 17.3164Z" fill="#272830"/>
		</g>
	</svg>

	<svg viewBox="0 0 24 26" fill="none" xmlns="http://www.w3.org/2000/svg">
		<g id="timer" class="img">
			<circle cx="12" cy="15" r="10" fill="white"/>
			<path d="M8.95312 2.03125H15.0469C15.6078 2.03125 16.0625 1.57655 16.0625 1.01562C16.0625 0.454695 15.6078 0 15.0469 0H8.95312C8.3922 0 7.9375 0.454695 7.9375 1.01562C7.9375 1.57655 8.3922 2.03125 8.95312 2.03125Z" fill="#272830"/>
			<path d="M14.8726 10.5191L11.2819 14.1099C10.8852 14.5065 10.8852 15.1495 11.2818 15.5461C11.6786 15.9429 12.3216 15.9427 12.7182 15.5461L16.3089 11.9554C16.7056 11.5588 16.7056 10.9158 16.309 10.5191C15.9123 10.1225 15.2693 10.1226 14.8726 10.5191Z" fill="#272830"/>
			<path d="M12 3.65625C5.82566 3.65625 0.828125 8.65292 0.828125 14.8281C0.828125 21.0025 5.82475 26 12 26C18.1745 26 23.1719 21.0032 23.1719 14.8281C23.1719 8.65379 18.1752 3.65625 12 3.65625ZM12 23.9688C6.95986 23.9688 2.85938 19.8683 2.85938 14.8281C2.85938 9.78798 6.95986 5.6875 12 5.6875C17.0401 5.6875 21.1406 9.78798 21.1406 14.8281C21.1406 19.8683 17.0401 23.9688 12 23.9688Z" fill="#272830"/>
		</g>
	</svg>

	<svg viewBox="0 0 20 18" fill="none" xmlns="http://www.w3.org/2000/svg">
		<g id="arrow" class="img">
			<path d="M18.75 7.74986H3.925L8.4625 2.29986C8.67467 2.04459 8.77675 1.71548 8.74628 1.38495C8.7158 1.05442 8.55527 0.74953 8.3 0.537356C8.04473 0.325183 7.71563 0.223106 7.3851 0.25358C7.05456 0.284055 6.74967 0.444586 6.5375 0.699856L0.2875 8.19986C0.245451 8.25951 0.207849 8.32218 0.175 8.38736C0.175 8.44986 0.175 8.48736 0.0875002 8.54986C0.0308421 8.69318 0.0011764 8.84575 0 8.99986C0.0011764 9.15397 0.0308421 9.30653 0.0875002 9.44986C0.0875002 9.51236 0.0874998 9.54986 0.175 9.61236C0.207849 9.67753 0.245451 9.7402 0.2875 9.79986L6.5375 17.2999C6.65503 17.441 6.8022 17.5544 6.96856 17.6322C7.13491 17.71 7.31636 17.7502 7.5 17.7499C7.79207 17.7504 8.07511 17.6487 8.3 17.4624C8.42657 17.3574 8.5312 17.2285 8.60789 17.0831C8.68458 16.9377 8.73183 16.7785 8.74692 16.6148C8.76202 16.4511 8.74466 16.286 8.69586 16.129C8.64705 15.972 8.56775 15.8262 8.4625 15.6999L3.925 10.2499H18.75C19.0815 10.2499 19.3995 10.1182 19.6339 9.88374C19.8683 9.64932 20 9.33138 20 8.99986C20 8.66834 19.8683 8.35039 19.6339 8.11597C19.3995 7.88155 19.0815 7.74986 18.75 7.74986Z" fill="#88701C"/>
		</g>
	</svg>

	<svg viewBox="0 0 36 65" fill="none" xmlns="http://www.w3.org/2000/svg">
		<g id="dekor" class="img">
			<path d="M0 0L18 16.2404V65L0 48.7596V0Z" fill="#88701C"/>
			<path d="M0 0H36L25.7586 49H0V0Z" fill="#FFDB5C"/>
		</g>
	</svg>

	<svg viewBox="0 0 18 13" fill="none" xmlns="http://www.w3.org/2000/svg">
		<g id="soglasie" class="img">
			<path fill-rule="evenodd" clip-rule="evenodd" d="M15.375 0.200012C14.7885 0.200012 14.2573 0.438012 13.8726 0.822637L11.7476 2.94764L6.875 7.82026L4.12738 5.07264C3.74275 4.68801 3.2115 4.45001 2.625 4.45001C1.452 4.45001 0.5 5.40201 0.5 6.57501C0.5 7.16151 0.738 7.69276 1.12263 8.07739L5.37263 12.3274C5.75725 12.712 6.2885 12.95 6.875 12.95C7.4615 12.95 7.99275 12.712 8.37738 12.3274L14.7524 5.95239L16.8774 3.82739C17.262 3.44276 17.5 2.91151 17.5 2.32501C17.5 1.15095 16.548 0.200012 15.375 0.200012Z" fill="white"/>
		</g>
	</svg>

	<svg viewBox="0 0 14 14" fill="none" xmlns="http://www.w3.org/2000/svg">
		<g id="edit" class="img">
			<path d="M0 11.0829V14H2.91707L11.5244 5.39267L8.60729 2.4756L0 11.0829Z" fill="#888C9F"/>
			<path d="M13.7723 2.04388L11.9559 0.227531C11.6525 -0.0758438 11.1585 -0.0758438 10.8552 0.227531L9.43164 1.65106L12.3487 4.56813L13.7722 3.1446C14.0757 2.84123 14.0757 2.34726 13.7723 2.04388Z" fill="#888C9F"/>
		</g>
	</svg>

	<svg viewBox="0 0 8 14" fill="none" xmlns="http://www.w3.org/2000/svg">
		<g id="prev-arrow" class="img">
			<path d="M0.37882 7.33783L6.85423 13.0173C7.06639 13.2033 7.40988 13.203 7.62169 13.0164C7.83333 12.8298 7.83278 12.5275 7.62059 12.3414L1.53062 6.99992L7.62081 1.6585C7.83297 1.47236 7.83352 1.17028 7.62191 0.983654C7.51573 0.890103 7.37663 0.843327 7.23754 0.843327C7.0988 0.843327 6.96024 0.88979 6.85426 0.982692L0.37882 6.66203C0.276637 6.75144 0.219297 6.87313 0.219297 6.99992C0.219297 7.12671 0.276801 7.24825 0.37882 7.33783Z" fill="#888C9F"/>
		</g>
	</svg>

	<svg viewBox="0 0 25 25" fill="none" xmlns="http://www.w3.org/2000/svg">
		<g id="alert" class="img">
			<path d="M4.51697 21.484C3.37085 20.377 2.45667 19.0529 1.82776 17.5889C1.19885 16.1248 0.867815 14.5502 0.853969 12.9568C0.840123 11.3635 1.14374 9.78331 1.74711 8.30855C2.35048 6.8338 3.24152 5.49397 4.36823 4.36726C5.49495 3.24055 6.83477 2.34951 8.30953 1.74614C9.78428 1.14277 11.3644 0.83915 12.9578 0.852996C14.5511 0.866842 16.1258 1.19788 17.5898 1.82678C19.0539 2.45569 20.378 3.36988 21.485 4.516C23.6709 6.77923 24.8804 9.81045 24.8531 12.9568C24.8257 16.1032 23.5637 19.1129 21.3388 21.3378C19.1139 23.5627 16.1042 24.8247 12.9578 24.8521C9.81143 24.8794 6.7802 23.6699 4.51697 21.484ZM19.793 19.792C21.5943 17.9907 22.6063 15.5475 22.6063 13C22.6063 10.4525 21.5943 8.00935 19.793 6.208C17.9916 4.40665 15.5485 3.39466 13.001 3.39466C10.4535 3.39466 8.01032 4.40665 6.20897 6.208C4.40762 8.00935 3.39564 10.4525 3.39564 13C3.39564 15.5475 4.40762 17.9907 6.20897 19.792C8.01032 21.5934 10.4535 22.6053 13.001 22.6053C15.5485 22.6053 17.9916 21.5934 19.793 19.792ZM11.801 14.2V11.8H14.201V19H11.801V14.2ZM11.801 7H14.201V9.4H11.801V7Z" fill="#F23828"/>
		</g>
	</svg>

	<svg viewBox="0 0 77 12" fill="none" xmlns="http://www.w3.org/2000/svg">
		<g id="circles" class="img">			
			<circle opacity="0.45" cx="18.8001" cy="6.00049" r="3.2" stroke="#758BFD" stroke-width="2"/>
			<circle opacity="0.45" cx="3.6" cy="6.00048" r="2.6" stroke="#758BFD" stroke-width="2"/>
			<circle opacity="0.65" cx="35.0002" cy="6.00049" r="3.8" stroke="#758BFD" stroke-width="2"/>
			<circle opacity="0.85" cx="52.4" cy="6.00049" r="4.4" stroke="#758BFD" stroke-width="2"/>
			<circle cx="71" cy="6.00049" r="5" stroke="#758BFD" stroke-width="2"/>
		</g>
	</svg>

















</svg>
